<svg id="Layer_1" data-name="Layer 1" xmlns="http://www.w3.org/2000/svg" viewBox="0 0 334.32 195"><g id="usdn"><path d="M239.82,6.15l-94.5,94.5,94.5,94.5,94.5-94.5Zm-85,94.5,85-85.05,85.05,85.05-85.05,85Z" transform="translate(-1 -1)" style="fill:#00f5ff"/><path d="M271.32,115.67a21,21,0,0,1-7.13,16q-7.14,6.62-20.87,7.33v14.13h-6.1v-14a54.45,54.45,0,0,1-16.63-3.5A33.22,33.22,0,0,1,208.32,128l3.51-7a34.12,34.12,0,0,0,11.06,7,44.75,44.75,0,0,0,14.33,3.32V99a93.19,93.19,0,0,1-13.9-4.52,23.55,23.55,0,0,1-9.25-7q-3.67-4.61-3.68-12.22a21.11,21.11,0,0,1,6.77-15.91q6.76-6.45,20.07-7.56V37.65h6.09v14a50.08,50.08,0,0,1,13.36,2.27,40.16,40.16,0,0,1,11.19,5.34l-3,7.25a45.72,45.72,0,0,0-10.52-5,40.4,40.4,0,0,0-11-2.09V92A114.92,114.92,0,0,1,258,96.49a23.54,23.54,0,0,1,9.55,7Q271.33,108.07,271.32,115.67ZM219.2,75q0,6.39,4.66,9.71t13.36,5.65V59.64q-8.94.73-13.48,5A13.68,13.68,0,0,0,219.2,75Zm24.12,56.28q9.56-.74,14.39-4.79a12.9,12.9,0,0,0,4.83-10.33q0-6.63-5-10t-14.27-5.6Z" transform="translate(-1 -1)" style="fill:#00f5ff"/><path d="M240.32,190.47,151.2,101.15s19.15-14.56,41.51-20,39.2,5.49,54.17,16.84,26.22,14.22,43.89,13.2,38.66-10,38.66-10Z" transform="translate(-1 -1)" style="fill:#00f5ff"/><circle cx="237.82" cy="96.5" r="92.5" style="fill:none;stroke:#00f5ff;stroke-miterlimit:10;stroke-width:8px"/><path d="M264.19,131.28a21,21,0,0,0,7.13-16,26.69,26.69,0,0,0-.28-3.89c-8.11-2.62-15.52-7.31-24.13-13.83-3.68-2.8-7.49-5.58-11.47-8.09a39.35,39.35,0,0,1-11.58-5.15,12,12,0,0,1-2-1.77,50.66,50.66,0,0,0-11.09-2.86A16.52,16.52,0,0,0,214.06,87a23.72,23.72,0,0,0,9.25,7,93.94,93.94,0,0,0,13.91,4.48V130.8a44.75,44.75,0,0,1-14.33-3.32,34.12,34.12,0,0,1-11.06-7l-3.51,7a33.34,33.34,0,0,0,12.27,7.68,53.93,53.93,0,0,0,16.64,3.5v14h6V138.59q13.78-.74,20.92-7.31m-6.53-5.23q-4.85,4.06-14.39,4.8V100.13q9.3,2.33,14.27,5.65c3.3,2.21,5,5.53,4.95,10a12.88,12.88,0,0,1-4.83,10.32" transform="translate(-1 -1)"/></g><g id="usdt"><circle cx="97.5" cy="97.5" r="97.5" style="fill:#26a17b"/><path d="M110.2,106.9h0c-.7,0-4.1.3-11.8.3-6.2,0-10.5-.2-12-.3h0c-23.7-1-41.4-5.2-41.4-10.1s17.7-9.1,41.4-10.1v16.1c1.5.1,6,.4,12.1.4a113.46,113.46,0,0,0,11.7-.4V86.7c23.6,1,41.3,5.2,41.3,10.1s-17.6,9-41.3,10.1m0-21.8V70.6h33v-22H53.4v22h33V85c-26.8,1.2-47,6.6-47,12.9s20.2,11.7,47,12.9V157h23.8V110.8c26.8-1.2,46.9-6.5,46.9-12.9S137,86.3,110.2,85.1" transform="translate(-1 -1)" style="fill:#fff;fill-rule:evenodd"/></g></svg>