<?xml version="1.0" encoding="utf-8"?>
<!-- Generator: Adobe Illustrator 24.1.2, SVG Export Plug-In . SVG Version: 6.00 Build 0)  -->
<svg version="1.1" id="Layer_1" xmlns="http://www.w3.org/2000/svg" xmlns:xlink="http://www.w3.org/1999/xlink" x="0px" y="0px"
	 viewBox="0 0 336 195.1" style="enable-background:new 0 0 336 195.1;" xml:space="preserve">
<style type="text/css">
	.st0{fill:#00F5FF;}
	.st1{fill:none;stroke:#00F5FF;stroke-width:8;stroke-miterlimit:10;}
	.st2{fill:#26A17B;}
	.st3{fill-rule:evenodd;clip-rule:evenodd;fill:#FFFFFF;}
</style>
<g id="usdn">
	<path class="st0" d="M240.4,6.1l-94.5,94.5l94.5,94.5l94.5-94.5L240.4,6.1z M155.3,100.7l85.1-85.1l85,85.1l-85,85L155.3,100.7z"/>
	<path class="st0" d="M271.9,115.7c0.1,6.1-2.5,12-7.1,16c-4.8,4.4-11.7,6.9-20.9,7.3v14.1h-6.1v-14c-5.7-0.3-11.3-1.5-16.6-3.5
		c-4.6-1.6-8.8-4.2-12.3-7.6l3.5-7c3.2,3,7,5.4,11.1,7c4.6,1.9,9.4,3,14.3,3.3V99c-4.7-1.1-9.4-2.7-13.9-4.5c-3.6-1.5-6.8-3.9-9.3-7
		c-2.5-3.1-3.7-7.1-3.7-12.2c-0.1-6,2.3-11.8,6.8-15.9c4.5-4.3,11.2-6.8,20.1-7.6V37.7h6.1v14c4.5,0.1,9,0.9,13.4,2.3
		c4,1.2,7.8,3,11.2,5.3l-3,7.3c-3.3-2.1-6.8-3.8-10.5-5c-3.6-1.2-7.3-1.9-11-2.1V92c5,1.2,9.9,2.7,14.6,4.5c3.7,1.5,7,3.9,9.5,7
		C270.6,106.5,271.9,110.6,271.9,115.7z M219.8,75c0,4.3,1.6,7.5,4.7,9.7c3.1,2.2,7.6,4.1,13.4,5.7V59.6c-6,0.5-10.5,2.2-13.5,5
		C221.4,67.3,219.7,71.1,219.8,75z M243.9,131.3c6.4-0.5,11.2-2.1,14.4-4.8c3.1-2.5,4.9-6.3,4.8-10.3c0-4.4-1.7-7.8-5-10
		c-3.3-2.2-8.1-4.1-14.3-5.6V131.3z"/>
	<path class="st0" d="M240.9,190.5l-89.1-89.3c0,0,19.1-14.6,41.5-20s39.2,5.5,54.2,16.8s26.2,14.2,43.9,13.2s38.7-10,38.7-10
		L240.9,190.5z"/>
	<circle class="st1" cx="239.4" cy="97.5" r="92.5"/>
	<path d="M264.7,131.3c4.6-4,7.2-9.9,7.1-16c0-1.3-0.1-2.6-0.3-3.9c-8.1-2.6-15.5-7.3-24.1-13.8c-3.7-2.8-7.5-5.6-11.5-8.1
		c-4.1-1.1-8-2.8-11.6-5.2c-0.7-0.5-1.4-1.1-2-1.8c-3.6-1.4-7.3-2.3-11.1-2.9c0.5,2.7,1.6,5.2,3.3,7.3c2.5,3.1,5.6,5.5,9.2,7
		c4.5,1.9,9.2,3.4,13.9,4.5v32.3c-4.9-0.3-9.8-1.4-14.3-3.3c-4.1-1.6-7.9-4-11.1-7l-3.5,7c3.5,3.4,7.7,6.1,12.3,7.7
		c5.3,2,10.9,3.2,16.6,3.5v14h6v-14.1C253,138.1,259.9,135.7,264.7,131.3 M258.2,126.1c-3.2,2.7-8,4.3-14.4,4.8v-30.7
		c6.2,1.6,11,3.4,14.3,5.7c3.3,2.2,5,5.5,5,10C263.1,119.8,261.3,123.6,258.2,126.1"/>
</g>
<g id="usdt">
	<circle class="st2" cx="97.5" cy="97.5" r="97.5"/>
	<path class="st3" d="M109.2,105.9L109.2,105.9c-0.7,0-4.1,0.3-11.8,0.3c-6.2,0-10.5-0.2-12-0.3l0,0c-23.7-1-41.4-5.2-41.4-10.1
		s17.7-9.1,41.4-10.1v16.1c1.5,0.1,6,0.4,12.1,0.4c7.4,0,11-0.3,11.7-0.4V85.7c23.6,1,41.3,5.2,41.3,10.1S132.9,104.8,109.2,105.9
		 M109.2,84.1V69.6h33v-22H52.4v22h33V84c-26.8,1.2-47,6.6-47,12.9s20.2,11.7,47,12.9V156h23.8v-46.2c26.8-1.2,46.9-6.5,46.9-12.9
		S136,85.3,109.2,84.1"/>
</g>
</svg>
