<svg id="Layer_1" data-name="Layer 1" xmlns="http://www.w3.org/2000/svg" viewBox="0 0 336.04 195.15"><path d="M343.41,178.43c-1.33.44-2.21-.44-2.21-1.76v-3.09a2.42,2.42,0,0,1,1.32-2.2,32.83,32.83,0,0,0,0-61.7,2.42,2.42,0,0,1-1.32-2.2v-3.09c0-1.32.88-1.76,2.21-1.76,15.86,5.29,27.76,20.27,27.76,37.9A39.82,39.82,0,0,1,343.41,178.43Z" transform="translate(-35.13 -3)" style="fill:#fff"/><g id="usdn"><path d="M275.5,9.15,181,103.65l94.5,94.5,94.5-94.5Zm-85.05,94.5L275.5,18.6l85.05,85.05-85.05,85Z" transform="translate(-35.13 -3)" style="fill:#00f5ff"/><path d="M307,118.67a21,21,0,0,1-7.13,16Q292.73,141.28,279,142v14.13H272.9v-14a54.22,54.22,0,0,1-16.63-3.5A33.26,33.26,0,0,1,244,131l3.51-7a34.09,34.09,0,0,0,11.06,7,44.75,44.75,0,0,0,14.33,3.32V102A93.4,93.4,0,0,1,259,97.48a23.64,23.64,0,0,1-9.25-7q-3.68-4.6-3.68-12.22a21.11,21.11,0,0,1,6.77-15.91q6.76-6.45,20.07-7.56V40.65H279v14a50.08,50.08,0,0,1,13.36,2.27,40.2,40.2,0,0,1,11.19,5.34l-3,7.25a46,46,0,0,0-10.52-5,40.44,40.44,0,0,0-11-2.09V95a114.11,114.11,0,0,1,14.63,4.49,23.58,23.58,0,0,1,9.55,7Q307,111.06,307,118.67ZM254.88,78q0,6.39,4.66,9.71t13.36,5.65V62.64q-8.94.73-13.48,5A13.66,13.66,0,0,0,254.88,78ZM279,134.28q9.56-.74,14.39-4.79a12.91,12.91,0,0,0,4.83-10.33q0-6.63-4.95-10T279,103.56Z" transform="translate(-35.13 -3)" style="fill:#00f5ff"/><path d="M276,193.47l-89.12-89.32s19.15-14.56,41.51-20,39.2,5.49,54.17,16.84,26.22,14.22,43.89,13.2,38.66-10,38.66-10Z" transform="translate(-35.13 -3)" style="fill:#00f5ff"/><circle cx="239.37" cy="97.5" r="92.5" style="fill:none;stroke:#00f5ff;stroke-miterlimit:10;stroke-width:8px"/><path d="M299.87,134.28a21,21,0,0,0,7.13-16,26.59,26.59,0,0,0-.28-3.89c-8.11-2.62-15.52-7.31-24.13-13.83-3.68-2.8-7.49-5.58-11.47-8.09a39.14,39.14,0,0,1-11.58-5.15,11.82,11.82,0,0,1-2-1.77,50.66,50.66,0,0,0-11.09-2.86A16.58,16.58,0,0,0,249.74,90a23.67,23.67,0,0,0,9.25,7,93.4,93.4,0,0,0,13.91,4.48v32.32a44.75,44.75,0,0,1-14.33-3.32,34.09,34.09,0,0,1-11.06-7l-3.51,7a33.3,33.3,0,0,0,12.27,7.68,54,54,0,0,0,16.64,3.5v14h6V141.59q13.79-.74,20.92-7.31m-6.53-5.23q-4.84,4.06-14.39,4.8V103.13q9.3,2.33,14.27,5.65c3.3,2.21,5,5.53,4.95,10a12.88,12.88,0,0,1-4.83,10.32" transform="translate(-35.13 -3)"/></g><g id="usdt"><circle cx="97.5" cy="97.5" r="97.5" style="fill:#26a17b"/><path d="M144.34,108.93h0c-.67,0-4.13.25-11.83.25-6.16,0-10.49-.18-12-.25h0c-23.7-1-41.38-5.16-41.38-10.1S96.8,89.77,120.5,88.71v16.12c1.54.11,6,.37,12.11.37,7.35,0,11-.31,11.73-.37V88.73c23.64,1,41.29,5.18,41.29,10.1s-17.65,9-41.29,10.1m0-21.88V72.63h33v-22H87.5v22h33V87c-26.82,1.24-47,6.55-47,12.91s20.16,11.67,47,12.91v46.2h23.84V112.85c26.77-1.23,46.89-6.54,46.89-12.9s-20.12-11.66-46.89-12.9" transform="translate(-35.13 -3)" style="fill:#fff;fill-rule:evenodd"/></g></svg>