<svg width="432" height="405" viewBox="0 0 432 405" fill="none" xmlns="http://www.w3.org/2000/svg">
<g opacity="0.4" filter="url(#filter0_i)">
<ellipse cx="224" cy="203" rx="208" ry="202" fill="#12A17E"/>
</g>
<g opacity="0.5" filter="url(#filter1_i)">
<ellipse cx="224" cy="203" rx="169" ry="164" fill="#12A17E"/>
</g>
<g filter="url(#filter2_i)">
<ellipse cx="217" cy="196" rx="116" ry="113" fill="#12A17E"/>
</g>
<g filter="url(#filter3_i)">
<ellipse cx="217" cy="196" rx="69" ry="67" fill="#12A17E"/>
</g>
<g filter="url(#filter4_d)">
<g clip-path="url(#clip0)">
<path d="M103.032 224.25C95.1993 216.38 80.1536 218.655 69.4251 229.331C58.6973 240.007 56.3492 255.043 64.1814 262.913C64.8504 263.585 66.8651 265.61 67.5342 266.282C75.3664 274.152 90.4129 271.877 101.141 261.201C111.869 250.524 114.217 235.489 106.384 227.619C105.715 226.947 103.701 224.922 103.032 224.25Z" fill="white"/>
<path d="M97.7879 257.832C108.516 247.155 110.864 232.12 103.032 224.25C95.1993 216.38 80.1532 218.655 69.4251 229.331C58.6969 240.008 56.3492 255.043 64.1814 262.913C72.0136 270.783 87.0597 268.508 97.7879 257.832Z" fill="white"/>
<path d="M64.1816 262.913C64.8507 263.585 66.8654 265.61 67.5344 266.282C75.3667 274.152 90.4131 271.877 101.141 261.201C111.869 250.524 114.217 235.489 106.385 227.619C105.716 226.947 103.702 224.923 103.032 224.25C110.864 232.12 108.515 247.155 97.7873 257.831C87.0595 268.507 72.0131 270.782 64.1816 262.913Z" fill="url(#paint0_linear)"/>
<path d="M69.4251 229.331C58.6973 240.007 56.3492 255.043 64.1814 262.913C72.0136 270.783 87.0601 268.508 97.7879 257.832C108.516 247.155 110.864 232.12 103.032 224.25C95.1993 216.38 80.1536 218.655 69.4251 229.331ZM97.1467 257.187C86.9031 267.382 72.5374 269.554 65.0593 262.039C57.5812 254.525 59.8217 240.169 70.0654 229.975C80.3091 219.781 94.6748 217.609 102.153 225.123C109.631 232.637 107.39 246.993 97.1467 257.187Z" fill="url(#paint1_linear)"/>
<path d="M97.147 257.187C107.391 246.993 109.632 232.638 102.154 225.124C94.6758 217.609 80.3094 219.781 70.0657 229.975C59.822 240.169 57.5808 254.524 65.0588 262.038C72.5369 269.553 86.9033 267.382 97.147 257.187ZM71.4514 231.367C81.1115 221.754 94.6601 219.705 101.712 226.791C108.765 233.877 106.651 247.417 96.9907 257.03C87.3305 266.644 73.7819 268.693 66.7298 261.606C59.6776 254.52 61.7912 240.981 71.4514 231.367Z" fill="url(#paint2_linear)"/>
<path fill-rule="evenodd" clip-rule="evenodd" d="M95.4401 236.647C95.0766 235.792 94.5649 235.016 93.8996 234.347C90.0729 230.502 82.618 231.718 77.2469 237.063C73.5746 240.717 71.8286 245.356 72.3137 249.152L77.2041 247.958C76.4864 245.546 77.5078 242.309 79.9998 239.829C82.1842 237.655 84.9429 236.614 87.2131 236.879L85.7045 239.047L90.0134 237.966L95.4401 236.647Z" fill="#12A17E"/>
<path fill-rule="evenodd" clip-rule="evenodd" d="M73.164 251.61C73.5274 252.464 74.0391 253.241 74.7044 253.909C78.5311 257.755 85.986 256.539 91.3571 251.193C95.0294 247.539 96.7754 242.901 96.2903 239.105L91.3999 240.298C92.1176 242.711 91.0962 245.947 88.6042 248.427C86.4198 250.601 83.6611 251.642 81.3909 251.377L82.8995 249.209L78.5906 250.29L73.164 251.61Z" fill="#173937"/>
<path d="M96.9897 257.029C106.65 247.416 108.764 233.877 101.712 226.791C94.6598 219.705 81.1115 221.753 71.4511 231.367C61.7908 240.981 59.6765 254.519 66.7288 261.606C73.7811 268.692 87.3294 266.643 96.9897 257.029Z" fill="url(#paint3_linear)"/>
</g>
<g clip-path="url(#clip1)">
<path d="M229.844 176.358C222.679 167.876 207.498 168.917 195.935 178.685C184.374 188.451 180.808 203.245 187.973 211.727C188.585 212.452 190.428 214.634 191.04 215.358C198.205 223.84 213.387 222.798 224.949 213.032C236.512 203.265 240.076 188.471 232.911 179.989C232.299 179.265 230.456 177.083 229.844 176.358Z" fill="white"/>
<path d="M221.882 209.401C233.444 199.634 237.009 184.84 229.844 176.358C222.679 167.876 207.498 168.918 195.935 178.685C184.373 188.451 180.808 203.245 187.973 211.727C195.138 220.209 210.32 219.168 221.882 209.401Z" fill="white"/>
<path d="M187.974 211.727C188.586 212.452 190.429 214.634 191.041 215.358C198.206 223.84 213.388 222.798 224.95 213.032C236.512 203.264 240.077 188.471 232.912 179.989C232.3 179.265 230.457 177.083 229.845 176.358C237.01 184.84 233.444 199.633 221.882 209.4C210.32 219.167 195.138 220.209 187.974 211.727Z" fill="url(#paint4_linear)"/>
<path d="M195.935 178.685C184.374 188.451 180.808 203.245 187.973 211.727C195.138 220.209 210.32 219.167 221.882 209.401C233.445 199.634 237.009 184.84 229.844 176.358C222.679 167.876 207.498 168.917 195.935 178.685ZM221.296 208.706C210.255 218.032 195.76 219.027 188.919 210.928C182.078 202.829 185.481 188.704 196.521 179.378C207.561 170.052 222.056 169.058 228.897 177.157C235.738 185.255 232.336 199.381 221.296 208.706Z" fill="url(#paint5_linear)"/>
<path d="M221.296 208.706C232.336 199.381 235.739 185.256 228.898 177.157C222.057 169.059 207.562 170.052 196.521 179.378C185.481 188.704 182.078 202.829 188.919 210.927C195.76 219.026 210.256 218.032 221.296 208.706ZM197.789 180.879C208.2 172.084 221.871 171.146 228.322 178.783C234.774 186.42 231.564 199.743 221.153 208.537C210.741 217.332 197.071 218.27 190.62 210.633C184.168 202.995 187.378 189.673 197.789 180.879Z" fill="url(#paint6_linear)"/>
<path fill-rule="evenodd" clip-rule="evenodd" d="M221.268 188.095C220.975 187.214 220.528 186.398 219.92 185.678C216.419 181.533 208.89 182.138 203.101 187.028C199.143 190.371 197.025 194.852 197.199 198.674L202.171 197.883C201.652 195.42 202.934 192.278 205.619 190.009C207.974 188.02 210.808 187.207 213.049 187.656L211.369 189.694L215.751 188.968L221.268 188.095Z" fill="#12A17E"/>
<path fill-rule="evenodd" clip-rule="evenodd" d="M197.846 201.194C198.139 202.075 198.586 202.89 199.194 203.611C202.695 207.755 210.224 207.151 216.013 202.261C219.971 198.918 222.089 194.437 221.914 190.614L216.943 191.405C217.462 193.868 216.18 197.011 213.494 199.279C211.14 201.268 208.306 202.081 206.065 201.632L207.745 199.594L203.362 200.32L197.846 201.194Z" fill="#173937"/>
<path d="M221.152 208.536C231.564 199.742 234.774 186.421 228.322 178.783C221.871 171.146 208.201 172.084 197.789 180.879C187.378 189.673 184.167 202.994 190.619 210.632C197.07 218.269 210.741 217.331 221.152 208.536Z" fill="url(#paint7_linear)"/>
</g>
<g clip-path="url(#clip2)">
<path d="M173.844 219.358C166.679 210.876 151.498 211.917 139.935 221.685C128.374 231.451 124.808 246.245 131.973 254.727C132.585 255.452 134.428 257.634 135.04 258.358C142.205 266.84 157.387 265.798 168.949 256.032C180.512 246.265 184.076 231.471 176.911 222.989C176.299 222.265 174.456 220.083 173.844 219.358Z" fill="white"/>
<path d="M165.882 252.401C177.444 242.634 181.009 227.84 173.844 219.358C166.679 210.876 151.498 211.918 139.935 221.685C128.373 231.451 124.808 246.245 131.973 254.727C139.138 263.209 154.32 262.168 165.882 252.401Z" fill="white"/>
<path d="M131.974 254.727C132.586 255.452 134.429 257.634 135.041 258.358C142.206 266.84 157.388 265.798 168.95 256.032C180.512 246.264 184.077 231.471 176.912 222.989C176.3 222.265 174.457 220.083 173.845 219.358C181.01 227.84 177.444 242.633 165.882 252.4C154.32 262.167 139.138 263.209 131.974 254.727Z" fill="url(#paint8_linear)"/>
<path d="M139.935 221.685C128.374 231.451 124.808 246.245 131.973 254.727C139.138 263.209 154.32 262.167 165.882 252.401C177.445 242.634 181.009 227.84 173.844 219.358C166.679 210.876 151.498 211.917 139.935 221.685ZM165.296 251.706C154.255 261.032 139.76 262.027 132.919 253.928C126.078 245.829 129.481 231.704 140.521 222.378C151.561 213.052 166.056 212.058 172.897 220.157C179.738 228.255 176.336 242.381 165.296 251.706Z" fill="url(#paint9_linear)"/>
<path d="M165.296 251.706C176.336 242.381 179.739 228.256 172.898 220.157C166.057 212.059 151.562 213.052 140.521 222.378C129.481 231.704 126.078 245.829 132.919 253.927C139.76 262.026 154.256 261.032 165.296 251.706ZM141.789 223.879C152.2 215.084 165.871 214.146 172.322 221.783C178.774 229.42 175.564 242.743 165.153 251.537C154.741 260.332 141.071 261.27 134.62 253.633C128.168 245.995 131.378 232.673 141.789 223.879Z" fill="url(#paint10_linear)"/>
<path fill-rule="evenodd" clip-rule="evenodd" d="M165.268 231.095C164.975 230.214 164.528 229.398 163.92 228.678C160.419 224.533 152.89 225.138 147.101 230.028C143.143 233.371 141.025 237.852 141.199 241.674L146.171 240.883C145.652 238.42 146.934 235.278 149.619 233.009C151.974 231.02 154.808 230.207 157.049 230.656L155.369 232.694L159.751 231.968L165.268 231.095Z" fill="#12A17E"/>
<path fill-rule="evenodd" clip-rule="evenodd" d="M141.846 244.194C142.139 245.075 142.586 245.89 143.194 246.611C146.695 250.755 154.224 250.151 160.013 245.261C163.971 241.918 166.089 237.437 165.914 233.614L160.943 234.405C161.462 236.868 160.18 240.011 157.494 242.279C155.14 244.268 152.306 245.081 150.065 244.632L151.745 242.594L147.362 243.32L141.846 244.194Z" fill="#173937"/>
<path d="M165.152 251.536C175.564 242.742 178.774 229.421 172.322 221.783C165.871 214.146 152.201 215.084 141.789 223.879C131.378 232.673 128.167 245.994 134.619 253.632C141.07 261.269 154.741 260.331 165.152 251.536Z" fill="url(#paint11_linear)"/>
</g>
<g clip-path="url(#clip3)">
<path d="M289.504 133.198C283.4 123.922 268.203 123.148 255.559 131.468C242.916 139.788 237.614 154.052 243.718 163.327C244.239 164.12 245.809 166.505 246.331 167.298C252.434 176.573 267.632 177.347 280.275 169.027C292.919 160.707 298.22 146.443 292.117 137.168C291.595 136.376 290.025 133.99 289.504 133.198Z" fill="white"/>
<path d="M277.662 165.057C290.306 156.736 295.607 142.473 289.504 133.198C283.4 123.922 268.203 123.148 255.559 131.468C242.916 139.788 237.614 154.052 243.718 163.327C249.822 172.602 265.019 173.377 277.662 165.057Z" fill="white"/>
<path d="M243.718 163.327C244.239 164.12 245.809 166.505 246.331 167.298C252.434 176.573 267.632 177.347 280.275 169.027C292.919 160.707 298.22 146.443 292.116 137.168C291.595 136.376 290.026 133.991 289.504 133.198C295.607 142.473 290.305 156.736 277.662 165.056C265.019 173.375 249.821 172.602 243.718 163.327Z" fill="url(#paint12_linear)"/>
<path d="M255.559 131.468C242.916 139.788 237.614 154.052 243.718 163.327C249.822 172.602 265.019 173.376 277.662 165.057C290.306 156.736 295.607 142.473 289.504 133.198C283.4 123.922 268.203 123.148 255.559 131.468ZM277.163 164.297C265.09 172.242 250.58 171.502 244.753 162.646C238.925 153.791 243.986 140.171 256.058 132.227C268.131 124.282 282.641 125.022 288.469 133.878C294.296 142.733 289.235 156.353 277.163 164.297Z" fill="url(#paint13_linear)"/>
<path d="M277.163 164.297C289.235 156.353 294.297 142.734 288.469 133.878C282.642 125.023 268.131 124.282 256.058 132.227C243.986 140.171 238.924 153.79 244.752 162.645C250.58 171.501 265.09 172.242 277.163 164.297ZM257.138 133.868C268.523 126.376 282.208 127.073 287.704 135.424C293.199 143.775 288.426 156.62 277.041 164.112C265.656 171.604 251.971 170.907 246.476 162.556C240.98 154.204 245.754 141.359 257.138 133.868Z" fill="url(#paint14_linear)"/>
<path fill-rule="evenodd" clip-rule="evenodd" d="M279.591 143.829C279.405 142.919 279.059 142.056 278.54 141.268C275.558 136.737 268.011 136.44 261.681 140.605C257.353 143.453 254.716 147.65 254.434 151.466L259.464 151.273C259.242 148.766 260.889 145.798 263.826 143.865C266.4 142.171 269.311 141.702 271.483 142.415L269.572 144.238L274.01 144.039L279.591 143.829Z" fill="#12A17E"/>
<path fill-rule="evenodd" clip-rule="evenodd" d="M254.776 154.045C254.962 154.954 255.308 155.817 255.826 156.605C258.809 161.137 266.356 161.434 272.686 157.268C277.014 154.42 279.651 150.224 279.933 146.408L274.903 146.601C275.125 149.108 273.478 152.076 270.541 154.008C267.966 155.702 265.055 156.172 262.884 155.459L264.795 153.636L260.357 153.834L254.776 154.045Z" fill="#173937"/>
<path d="M277.04 164.111C288.425 156.619 293.2 143.776 287.704 135.424C282.208 127.072 268.523 126.376 257.138 133.868C245.753 141.36 240.979 154.203 246.475 162.555C251.971 170.906 265.655 171.603 277.04 164.111Z" fill="url(#paint15_linear)"/>
</g>
</g>
<g filter="url(#filter5_d)">
<g clip-path="url(#clip4)">
<path d="M135.967 85.9431C128.135 78.073 113.089 80.3476 102.361 91.0245C91.6328 101.701 89.2847 116.736 97.1169 124.606C97.786 125.278 99.8007 127.303 100.47 127.975C108.302 135.845 123.348 133.57 134.076 122.894C144.805 112.217 147.152 97.1824 139.32 89.3122C138.651 88.6399 136.636 86.6154 135.967 85.9431Z" fill="white"/>
<path d="M130.723 119.525C141.452 108.848 143.799 93.8133 135.967 85.9431C128.135 78.073 113.089 80.348 102.361 91.0245C91.6324 101.701 89.2848 116.736 97.1169 124.606C104.949 132.476 119.995 130.201 130.723 119.525Z" fill="white"/>
<path d="M97.1172 124.606C97.7862 125.278 99.8009 127.303 100.47 127.975C108.302 135.845 123.349 133.57 134.076 122.894C144.805 112.217 147.152 97.1824 139.32 89.3122C138.651 88.6399 136.637 86.6162 135.967 85.9431C143.8 93.8133 141.451 108.848 130.723 119.524C119.995 130.2 104.949 132.475 97.1172 124.606Z" fill="url(#paint16_linear)"/>
<path d="M102.361 91.0245C91.6328 101.701 89.2847 116.736 97.1169 124.606C104.949 132.476 119.996 130.201 130.723 119.525C141.452 108.848 143.799 93.8133 135.967 85.9431C128.135 78.073 113.089 80.3476 102.361 91.0245ZM130.082 118.88C119.839 129.075 105.473 131.247 97.9949 123.732C90.5168 116.218 92.7573 101.862 103.001 91.6679C113.245 81.4736 127.61 79.3018 135.088 86.8161C142.566 94.3304 140.326 108.686 130.082 118.88Z" fill="url(#paint17_linear)"/>
<path d="M130.083 118.88C140.326 108.686 142.568 94.3311 135.089 86.8168C127.611 79.3025 113.245 81.4736 103.001 91.6679C92.7576 101.862 90.5163 116.217 97.9944 123.731C105.472 131.246 119.839 129.075 130.083 118.88ZM104.387 93.0603C114.047 83.4467 127.596 81.3978 134.648 88.4841C141.7 95.5705 139.586 109.11 129.926 118.723C120.266 128.337 106.717 130.386 99.6653 123.3C92.6131 116.213 94.7267 102.674 104.387 93.0603Z" fill="url(#paint18_linear)"/>
<path fill-rule="evenodd" clip-rule="evenodd" d="M128.376 98.3396C128.012 97.4851 127.5 96.7086 126.835 96.0402C123.008 92.1949 115.554 93.4108 110.182 98.756C106.51 102.411 104.764 107.049 105.249 110.845L110.14 109.651C109.422 107.239 110.443 104.002 112.935 101.522C115.12 99.3483 117.878 98.3072 120.149 98.5721L118.64 100.74L122.949 99.6595L128.376 98.3396Z" fill="#12A17E"/>
<path fill-rule="evenodd" clip-rule="evenodd" d="M106.099 113.303C106.463 114.157 106.975 114.934 107.64 115.602C111.467 119.448 118.922 118.232 124.293 112.887C127.965 109.232 129.711 104.594 129.226 100.798L124.335 101.991C125.053 104.404 124.032 107.64 121.54 110.12C119.355 112.294 116.597 113.335 114.326 113.07L115.835 110.902L111.526 111.983L106.099 113.303Z" fill="#173937"/>
<path d="M129.925 118.723C139.586 109.109 141.7 95.5705 134.648 88.4841C127.595 81.3976 114.047 83.4464 104.387 93.0602C94.7263 102.674 92.612 116.212 99.6643 123.299C106.717 130.385 120.265 128.336 129.925 118.723Z" fill="url(#paint19_linear)"/>
</g>
<g clip-path="url(#clip5)">
<path d="M191.844 122.358C184.679 113.876 169.498 114.917 157.935 124.685C146.374 134.451 142.808 149.245 149.973 157.727C150.585 158.452 152.428 160.634 153.04 161.358C160.205 169.84 175.387 168.798 186.949 159.032C198.512 149.265 202.076 134.471 194.911 125.989C194.299 125.265 192.456 123.083 191.844 122.358Z" fill="white"/>
<path d="M183.882 155.401C195.444 145.634 199.009 130.84 191.844 122.358C184.679 113.876 169.498 114.918 157.935 124.685C146.373 134.451 142.808 149.245 149.973 157.727C157.138 166.209 172.32 165.168 183.882 155.401Z" fill="white"/>
<path d="M149.974 157.727C150.586 158.452 152.429 160.634 153.041 161.358C160.206 169.84 175.388 168.798 186.95 159.032C198.512 149.264 202.077 134.471 194.912 125.989C194.3 125.265 192.457 123.083 191.845 122.358C199.01 130.84 195.444 145.633 183.882 155.4C172.32 165.167 157.138 166.209 149.974 157.727Z" fill="url(#paint20_linear)"/>
<path d="M157.935 124.685C146.374 134.451 142.808 149.245 149.973 157.727C157.138 166.209 172.32 165.167 183.882 155.401C195.445 145.634 199.009 130.84 191.844 122.358C184.679 113.876 169.498 114.917 157.935 124.685ZM183.296 154.706C172.255 164.032 157.76 165.027 150.919 156.928C144.078 148.829 147.481 134.704 158.521 125.378C169.561 116.052 184.056 115.058 190.897 123.157C197.738 131.255 194.336 145.381 183.296 154.706Z" fill="url(#paint21_linear)"/>
<path d="M183.296 154.706C194.336 145.381 197.739 131.256 190.898 123.157C184.057 115.059 169.562 116.052 158.521 125.378C147.481 134.704 144.078 148.829 150.919 156.927C157.76 165.026 172.256 164.032 183.296 154.706ZM159.789 126.879C170.2 118.084 183.871 117.146 190.322 124.783C196.774 132.42 193.564 145.743 183.153 154.537C172.741 163.332 159.071 164.27 152.62 156.633C146.168 148.995 149.378 135.673 159.789 126.879Z" fill="url(#paint22_linear)"/>
<path fill-rule="evenodd" clip-rule="evenodd" d="M183.268 134.095C182.975 133.214 182.528 132.398 181.92 131.678C178.419 127.533 170.89 128.138 165.101 133.028C161.143 136.371 159.025 140.852 159.199 144.674L164.171 143.883C163.652 141.42 164.934 138.278 167.619 136.009C169.974 134.02 172.808 133.207 175.049 133.656L173.369 135.694L177.751 134.968L183.268 134.095Z" fill="#12A17E"/>
<path fill-rule="evenodd" clip-rule="evenodd" d="M159.846 147.194C160.139 148.075 160.586 148.89 161.194 149.611C164.695 153.755 172.224 153.151 178.013 148.261C181.971 144.918 184.089 140.437 183.914 136.614L178.943 137.405C179.462 139.868 178.18 143.011 175.494 145.279C173.14 147.268 170.306 148.081 168.065 147.632L169.745 145.594L165.362 146.32L159.846 147.194Z" fill="#173937"/>
<path d="M183.152 154.536C193.564 145.742 196.774 132.421 190.322 124.783C183.871 117.146 170.201 118.084 159.789 126.879C149.378 135.673 146.167 148.994 152.619 156.632C159.07 164.269 172.741 163.331 183.152 154.536Z" fill="url(#paint23_linear)"/>
</g>
<g clip-path="url(#clip6)">
<path d="M139.354 168.051C132.189 159.569 117.008 160.61 105.445 170.378C93.8833 180.144 90.318 194.938 97.483 203.42C98.0951 204.145 99.9382 206.327 100.55 207.051C107.715 215.533 122.897 214.491 134.459 204.725C146.022 194.958 149.586 180.164 142.421 171.682C141.809 170.958 139.966 168.776 139.354 168.051Z" fill="white"/>
<path d="M131.392 201.094C142.954 191.327 146.519 176.533 139.354 168.051C132.189 159.569 117.008 160.611 105.445 170.378C93.8829 180.145 90.3181 194.938 97.483 203.42C104.648 211.902 119.829 210.861 131.392 201.094Z" fill="white"/>
<path d="M97.4834 203.42C98.0955 204.145 99.9385 206.327 100.551 207.051C107.716 215.533 122.897 214.491 134.459 204.725C146.022 194.958 149.586 180.164 142.421 171.682C141.809 170.958 139.967 168.777 139.354 168.051C146.519 176.533 142.953 191.326 131.391 201.093C119.83 210.86 104.648 211.902 97.4834 203.42Z" fill="url(#paint24_linear)"/>
<path d="M105.445 170.378C93.8833 180.144 90.318 194.938 97.483 203.42C104.648 211.902 119.83 210.86 131.392 201.094C142.955 191.327 146.519 176.533 139.354 168.051C132.189 159.569 117.008 160.61 105.445 170.378ZM130.805 200.4C119.765 209.725 105.27 210.72 98.4292 202.621C91.5882 194.522 94.9908 180.397 106.031 171.071C117.071 161.745 131.566 160.751 138.407 168.85C145.248 176.948 141.845 191.074 130.805 200.4Z" fill="url(#paint25_linear)"/>
<path d="M130.806 200.399C141.846 191.074 145.249 176.949 138.408 168.85C131.567 160.752 117.071 161.745 106.031 171.071C94.9911 180.397 91.5878 194.522 98.4288 202.62C105.27 210.719 119.765 209.725 130.806 200.399ZM107.299 172.572C117.71 163.777 131.381 162.839 137.832 170.476C144.283 178.113 141.074 191.436 130.663 200.23C120.251 209.025 106.581 209.963 100.129 202.326C93.6779 194.688 96.8876 181.366 107.299 172.572Z" fill="url(#paint26_linear)"/>
<path fill-rule="evenodd" clip-rule="evenodd" d="M130.777 179.788C130.485 178.907 130.038 178.091 129.429 177.371C125.929 173.226 118.399 173.831 112.611 178.721C108.653 182.064 106.535 186.545 106.709 190.367L111.68 189.576C111.162 187.113 112.443 183.971 115.129 181.702C117.483 179.713 120.318 178.9 122.559 179.349L120.879 181.387L125.261 180.661L130.777 179.788Z" fill="#12A17E"/>
<path fill-rule="evenodd" clip-rule="evenodd" d="M107.356 192.887C107.649 193.768 108.095 194.583 108.704 195.304C112.205 199.448 119.734 198.844 125.523 193.954C129.48 190.611 131.599 186.13 131.424 182.307L126.453 183.098C126.972 185.561 125.69 188.704 123.004 190.973C120.65 192.961 117.816 193.774 115.575 193.325L117.255 191.287L112.872 192.013L107.356 192.887Z" fill="#173937"/>
<path d="M130.662 200.229C141.073 191.435 144.284 178.114 137.832 170.476C131.381 162.839 117.71 163.777 107.299 172.572C96.8875 181.367 93.6772 194.687 100.129 202.325C106.58 209.962 120.25 209.024 130.662 200.229Z" fill="url(#paint27_linear)"/>
</g>
<g clip-path="url(#clip7)">
<path d="M255.014 81.8906C248.91 72.6154 233.713 71.8409 221.069 80.1613C208.426 88.4811 203.124 102.745 209.228 112.02C209.749 112.813 211.319 115.198 211.841 115.991C217.944 125.266 233.142 126.04 245.785 117.72C258.429 109.4 263.73 95.1363 257.626 85.8611C257.105 85.0688 255.535 82.6829 255.014 81.8906Z" fill="white"/>
<path d="M243.172 113.75C255.816 105.429 261.117 91.1657 255.014 81.8906C248.91 72.6155 233.713 71.8412 221.069 80.1613C208.426 88.4814 203.124 102.745 209.228 112.02C215.331 121.295 230.529 122.07 243.172 113.75Z" fill="white"/>
<path d="M209.228 112.02C209.749 112.813 211.319 115.198 211.84 115.991C217.944 125.266 233.142 126.04 245.785 117.72C258.429 109.4 263.73 95.1363 257.626 85.8611C257.105 85.0688 255.535 82.6838 255.013 81.8906C261.117 91.1658 255.814 105.429 243.171 113.749C230.528 122.068 215.331 121.295 209.228 112.02Z" fill="url(#paint28_linear)"/>
<path d="M221.069 80.1613C208.426 88.4811 203.124 102.745 209.228 112.02C215.331 121.296 230.529 122.069 243.172 113.75C255.816 105.429 261.117 91.1658 255.014 81.8906C248.91 72.6154 233.713 71.8409 221.069 80.1613ZM242.673 112.99C230.6 120.935 216.09 120.195 210.262 111.339C204.435 102.484 209.496 88.864 221.568 80.9197C233.641 72.9753 248.151 73.7148 253.978 82.5706C259.806 91.4264 254.745 105.046 242.673 112.99Z" fill="url(#paint29_linear)"/>
<path d="M242.673 112.99C254.745 105.046 259.807 91.4273 253.979 82.5715C248.151 73.7157 233.641 72.9753 221.568 80.9197C209.496 88.864 204.434 102.483 210.262 111.339C216.089 120.194 230.6 120.935 242.673 112.99ZM222.648 82.5606C234.033 75.0688 247.718 75.7656 253.214 84.1171C258.709 92.4685 253.936 105.313 242.551 112.805C231.166 120.297 217.481 119.6 211.985 111.249C206.49 102.897 211.263 90.0524 222.648 82.5606Z" fill="url(#paint30_linear)"/>
<path fill-rule="evenodd" clip-rule="evenodd" d="M245.1 92.5221C244.915 91.6123 244.568 90.7493 244.05 89.9615C241.068 85.4297 233.52 85.133 227.19 89.2985C222.862 92.1465 220.226 96.343 219.943 100.159L224.973 99.966C224.752 97.4589 226.399 94.4911 229.336 92.5585C231.91 90.8644 234.821 90.395 236.993 91.1077L235.082 92.931L239.52 92.7322L245.1 92.5221Z" fill="#12A17E"/>
<path fill-rule="evenodd" clip-rule="evenodd" d="M220.286 102.738C220.471 103.647 220.818 104.511 221.336 105.298C224.318 109.83 231.866 110.127 238.196 105.961C242.524 103.113 245.161 98.9168 245.443 95.1006L240.413 95.2938C240.634 97.8009 238.987 100.769 236.051 102.701C233.476 104.395 230.565 104.865 228.394 104.152L230.305 102.329L225.867 102.528L220.286 102.738Z" fill="#173937"/>
<path d="M242.55 112.804C253.935 105.312 258.709 92.4687 253.213 84.1171C247.718 75.7655 234.033 75.0687 222.648 82.5607C211.263 90.0526 206.489 102.896 211.985 111.248C217.481 119.599 231.165 120.296 242.55 112.804Z" fill="url(#paint31_linear)"/>
</g>
</g>
<g clip-path="url(#clip8)">
<path d="M305.844 41.3581C298.679 32.876 283.498 33.9173 271.935 43.6846C260.374 53.4512 256.808 68.2451 263.973 76.7272C264.585 77.4518 266.428 79.6337 267.04 80.3582C274.205 88.8404 289.387 87.7984 300.949 78.0318C312.512 68.2645 316.076 53.4712 308.911 44.9891C308.299 44.2646 306.456 42.0827 305.844 41.3581Z" fill="white"/>
<path d="M297.882 74.4008C309.444 64.6339 313.009 49.8402 305.844 41.3581C298.679 32.8761 283.498 33.9177 271.935 43.6846C260.373 53.4515 256.808 68.2452 263.973 76.7272C271.138 85.2093 286.32 84.1677 297.882 74.4008Z" fill="white"/>
<path d="M263.974 76.7272C264.586 77.4518 266.429 79.6336 267.041 80.3582C274.206 88.8403 289.388 87.7983 300.95 78.0317C312.512 68.2645 316.077 53.4712 308.912 44.9891C308.3 44.2645 306.457 42.0835 305.845 41.3581C313.01 49.8402 309.444 64.6334 297.882 74.3999C286.32 84.1665 271.138 85.2085 263.974 76.7272Z" fill="url(#paint32_linear)"/>
<path d="M271.935 43.6846C260.374 53.4512 256.808 68.2451 263.973 76.7272C271.138 85.2094 286.32 84.1674 297.882 74.4008C309.445 64.6335 313.009 49.8402 305.844 41.3581C298.679 32.876 283.498 33.9173 271.935 43.6846ZM297.296 73.7065C286.255 83.0323 271.76 84.0266 264.919 75.928C258.078 67.8294 261.481 53.7039 272.521 44.3781C283.561 35.0522 298.056 34.058 304.897 42.1566C311.738 50.2551 308.336 64.3806 297.296 73.7065Z" fill="url(#paint33_linear)"/>
<path d="M297.296 73.7064C308.336 64.3806 311.739 50.2559 304.898 42.1573C298.057 34.0587 283.562 35.0522 272.521 44.378C261.481 53.7038 258.078 67.8285 264.919 75.9271C271.76 84.0257 286.256 83.0323 297.296 73.7064ZM273.789 45.8787C284.2 37.084 297.871 36.1457 304.322 43.7831C310.774 51.4204 307.564 64.7425 297.153 73.5371C286.741 82.3318 273.071 83.2701 266.62 75.6327C260.168 67.9954 263.378 54.6733 273.789 45.8787Z" fill="url(#paint34_linear)"/>
<path fill-rule="evenodd" clip-rule="evenodd" d="M297.268 53.0948C296.975 52.2136 296.528 51.398 295.92 50.6776C292.419 46.5333 284.89 47.1378 279.101 52.0276C275.143 55.3708 273.025 59.8516 273.199 63.6742L278.171 62.8832C277.652 60.4204 278.934 57.2776 281.619 55.0089C283.974 53.0202 286.808 52.2073 289.049 52.6563L287.369 54.6942L291.751 53.9683L297.268 53.0948Z" fill="#12A17E"/>
<path fill-rule="evenodd" clip-rule="evenodd" d="M273.846 66.1936C274.139 67.0748 274.586 67.8904 275.194 68.6108C278.695 72.7551 286.224 72.1506 292.013 67.2608C295.971 63.9175 298.089 59.4368 297.914 55.6142L292.943 56.4052C293.462 58.868 292.18 62.0108 289.494 64.2795C287.14 66.2682 284.306 67.0811 282.065 66.632L283.745 64.5942L279.362 65.3201L273.846 66.1936Z" fill="#173937"/>
<path d="M297.152 73.5363C307.564 64.7415 310.774 51.4205 304.322 43.7831C297.871 36.1456 284.201 37.0838 273.789 45.8786C263.378 54.6734 260.167 67.9944 266.619 75.6319C273.07 83.2693 286.741 82.3311 297.152 73.5363Z" fill="url(#paint35_linear)"/>
</g>
<g clip-path="url(#clip9)">
<path d="M253.837 16.7941C247.734 7.51889 232.537 6.74445 219.893 15.0648C207.25 23.3846 201.948 37.6486 208.051 46.9238C208.573 47.7161 210.143 50.102 210.664 50.8943C216.768 60.1695 231.966 60.9434 244.609 52.6236C257.253 44.3032 262.554 30.0398 256.45 20.7646C255.929 19.9723 254.359 17.5864 253.837 16.7941Z" fill="white"/>
<path d="M241.996 48.6531C254.639 40.333 259.941 26.0692 253.837 16.7941C247.734 7.51898 232.536 6.74475 219.893 15.0648C207.25 23.3849 201.948 37.6487 208.051 46.9238C214.155 56.1989 229.352 56.9731 241.996 48.6531Z" fill="white"/>
<path d="M208.051 46.9238C208.573 47.7161 210.143 50.102 210.664 50.8943C216.768 60.1695 231.966 60.9434 244.608 52.6236C257.252 44.3032 262.554 30.0398 256.45 20.7646C255.929 19.9723 254.359 17.5873 253.837 16.7941C259.941 26.0693 254.638 40.3324 241.995 48.6522C229.352 56.972 214.154 56.1981 208.051 46.9238Z" fill="url(#paint36_linear)"/>
<path d="M219.893 15.0648C207.25 23.3846 201.948 37.6486 208.051 46.9238C214.155 56.199 229.353 56.9729 241.996 48.6531C254.64 40.3327 259.941 26.0693 253.837 16.7941C247.734 7.51889 232.537 6.74445 219.893 15.0648ZM241.496 47.8938C229.424 55.8382 214.914 55.0987 209.086 46.2429C203.259 37.3871 208.32 23.7675 220.392 15.8232C232.464 7.87881 246.974 8.61826 252.802 17.4741C258.63 26.3299 253.569 39.9495 241.496 47.8938Z" fill="url(#paint37_linear)"/>
<path d="M241.496 47.8939C253.569 39.9495 258.63 26.3308 252.803 17.475C246.975 8.61917 232.464 7.87882 220.392 15.8232C208.32 23.7675 203.258 37.3862 209.086 46.242C214.913 55.0979 229.424 55.8382 241.496 47.8939ZM221.472 17.4641C232.857 9.97232 246.542 10.6691 252.037 19.0206C257.533 27.372 252.759 40.2169 241.374 47.7087C229.99 55.2006 216.305 54.5038 210.809 46.1523C205.313 37.8009 210.087 24.956 221.472 17.4641Z" fill="url(#paint38_linear)"/>
<path fill-rule="evenodd" clip-rule="evenodd" d="M243.924 27.4256C243.739 26.5158 243.392 25.6528 242.874 24.865C239.892 20.3332 232.344 20.0365 226.014 24.202C221.686 27.05 219.049 31.2465 218.767 35.0627L223.797 34.8695C223.576 32.3624 225.223 29.3946 228.159 27.4621C230.734 25.7679 233.645 25.2985 235.816 26.0112L233.905 27.8345L238.343 27.6357L243.924 27.4256Z" fill="#12A17E"/>
<path fill-rule="evenodd" clip-rule="evenodd" d="M219.11 37.6412C219.295 38.551 219.642 39.414 220.16 40.2018C223.142 44.7335 230.69 45.0303 237.02 40.8648C241.348 38.0168 243.984 33.8203 244.267 30.0041L239.236 30.1973C239.458 32.7044 237.811 35.6721 234.874 37.6047C232.3 39.2988 229.389 39.7683 227.217 39.0555L229.128 37.2323L224.69 37.431L219.11 37.6412Z" fill="#173937"/>
<path d="M241.374 47.7079C252.759 40.2159 257.533 27.3722 252.037 19.0206C246.541 10.669 232.857 9.97218 221.472 17.4642C210.087 24.9561 205.313 37.7999 210.808 46.1514C216.304 54.503 229.989 55.1998 241.374 47.7079Z" fill="url(#paint39_linear)"/>
</g>
<g clip-path="url(#clip10)">
<path d="M92.8374 139.794C86.7337 130.519 71.5368 129.744 58.8929 138.065C46.25 146.385 40.9479 160.649 47.0515 169.924C47.5729 170.716 49.1429 173.102 49.6643 173.894C55.7679 183.17 70.9657 183.943 83.6087 175.624C96.2526 167.303 101.554 153.04 95.4502 143.765C94.9288 142.972 93.3587 140.586 92.8374 139.794Z" fill="white"/>
<path d="M80.9959 171.653C93.6393 163.333 98.9409 149.069 92.8374 139.794C86.7338 130.519 71.5364 129.745 58.8929 138.065C46.2495 146.385 40.9479 160.649 47.0515 169.924C53.155 179.199 68.3525 179.973 80.9959 171.653Z" fill="white"/>
<path d="M47.0513 169.924C47.5727 170.716 49.1427 173.102 49.6641 173.894C55.7677 183.17 70.9655 183.943 83.6085 175.624C96.2524 167.303 101.554 153.04 95.45 143.765C94.9286 142.972 93.3591 140.587 92.8372 139.794C98.9408 149.069 93.6381 163.332 80.9951 171.652C68.3521 179.972 53.1543 179.198 47.0513 169.924Z" fill="url(#paint40_linear)"/>
<path d="M58.8929 138.065C46.25 146.385 40.9479 160.649 47.0515 169.924C53.1551 179.199 68.3529 179.973 80.9959 171.653C93.6398 163.333 98.941 149.069 92.8374 139.794C86.7337 130.519 71.5368 129.744 58.8929 138.065ZM80.4963 170.894C68.4238 178.838 53.9137 178.099 48.0861 169.243C42.2585 160.387 47.3195 146.768 59.392 138.823C71.4644 130.879 85.9745 131.618 91.8021 140.474C97.6297 149.33 92.5687 162.95 80.4963 170.894Z" fill="url(#paint41_linear)"/>
<path d="M80.4963 170.894C92.5687 162.95 97.6303 149.331 91.8027 140.475C85.9751 131.619 71.4644 130.879 59.392 138.823C47.3195 146.768 42.2579 160.386 48.0856 169.242C53.9132 178.098 68.4238 178.838 80.4963 170.894ZM60.4718 140.464C71.8566 132.972 85.5415 133.669 91.0372 142.021C96.533 150.372 91.7592 163.217 80.3745 170.709C68.9897 178.201 55.3048 177.504 49.8091 169.152C44.3133 160.801 49.0871 147.956 60.4718 140.464Z" fill="url(#paint42_linear)"/>
<path fill-rule="evenodd" clip-rule="evenodd" d="M82.9242 150.426C82.7386 149.516 82.3922 148.653 81.8738 147.865C78.8916 143.333 71.344 143.037 65.014 147.202C60.6862 150.05 58.0494 154.247 57.7671 158.063L62.7972 157.869C62.5755 155.362 64.2225 152.395 67.1593 150.462C69.7338 148.768 72.6448 148.298 74.8164 149.011L72.9053 150.834L77.3433 150.636L82.9242 150.426Z" fill="#12A17E"/>
<path fill-rule="evenodd" clip-rule="evenodd" d="M58.1095 160.641C58.2951 161.551 58.6415 162.414 59.1599 163.202C62.1421 167.734 69.6897 168.03 76.0197 163.865C80.3475 161.017 82.9843 156.82 83.2666 153.004L78.2365 153.197C78.4582 155.704 76.8112 158.672 73.8744 160.605C71.2999 162.299 68.3889 162.768 66.2173 162.056L68.1284 160.232L63.6904 160.431L58.1095 160.641Z" fill="#173937"/>
<path d="M80.3739 170.708C91.7589 163.216 96.533 150.372 91.0372 142.021C85.5414 133.669 71.8568 132.972 60.4718 140.464C49.0868 147.956 44.3126 160.8 49.8084 169.151C55.3043 177.503 68.9888 178.2 80.3739 170.708Z" fill="url(#paint43_linear)"/>
</g>
<g clip-path="url(#clip11)">
<path d="M56.8374 196.794C50.7337 187.519 35.5368 186.744 22.8929 195.065C10.25 203.385 4.94786 217.649 11.0515 226.924C11.5729 227.716 13.1429 230.102 13.6643 230.894C19.7679 240.17 34.9657 240.943 47.6087 232.624C60.2526 224.303 65.5538 210.04 59.4502 200.765C58.9288 199.972 57.3587 197.586 56.8374 196.794Z" fill="white"/>
<path d="M44.9959 228.653C57.6393 220.333 62.9409 206.069 56.8374 196.794C50.7338 187.519 35.5364 186.745 22.8929 195.065C10.2495 203.385 4.94791 217.649 11.0515 226.924C17.155 236.199 32.3525 236.973 44.9959 228.653Z" fill="white"/>
<path d="M11.0513 226.924C11.5727 227.716 13.1427 230.102 13.6641 230.894C19.7677 240.17 34.9655 240.943 47.6085 232.624C60.2524 224.303 65.5536 210.04 59.45 200.765C58.9286 199.972 57.3591 197.587 56.8372 196.794C62.9408 206.069 57.6381 220.332 44.9951 228.652C32.3521 236.972 17.1543 236.198 11.0513 226.924Z" fill="url(#paint44_linear)"/>
<path d="M22.8929 195.065C10.25 203.385 4.94786 217.649 11.0515 226.924C17.1551 236.199 32.3529 236.973 44.9959 228.653C57.6398 220.333 62.941 206.069 56.8374 196.794C50.7337 187.519 35.5368 186.744 22.8929 195.065ZM44.4963 227.894C32.4238 235.838 17.9137 235.099 12.0861 226.243C6.2585 217.387 11.3195 203.768 23.392 195.823C35.4644 187.879 49.9745 188.618 55.8021 197.474C61.6297 206.33 56.5687 219.95 44.4963 227.894Z" fill="url(#paint45_linear)"/>
<path d="M44.4963 227.894C56.5687 219.95 61.6303 206.331 55.8027 197.475C49.9751 188.619 35.4644 187.879 23.392 195.823C11.3195 203.768 6.25793 217.386 12.0856 226.242C17.9132 235.098 32.4238 235.838 44.4963 227.894ZM24.4718 197.464C35.8566 189.972 49.5415 190.669 55.0372 199.021C60.533 207.372 55.7592 220.217 44.3745 227.709C32.9897 235.201 19.3048 234.504 13.8091 226.152C8.31334 217.801 13.0871 204.956 24.4718 197.464Z" fill="url(#paint46_linear)"/>
<path fill-rule="evenodd" clip-rule="evenodd" d="M46.9242 207.426C46.7386 206.516 46.3922 205.653 45.8738 204.865C42.8916 200.333 35.344 200.037 29.014 204.202C24.6862 207.05 22.0494 211.247 21.7671 215.063L26.7972 214.869C26.5755 212.362 28.2225 209.395 31.1593 207.462C33.7338 205.768 36.6448 205.298 38.8164 206.011L36.9053 207.834L41.3433 207.636L46.9242 207.426Z" fill="#12A17E"/>
<path fill-rule="evenodd" clip-rule="evenodd" d="M22.1095 217.641C22.2951 218.551 22.6415 219.414 23.1599 220.202C26.1421 224.734 33.6897 225.03 40.0197 220.865C44.3475 218.017 46.9843 213.82 47.2666 210.004L42.2365 210.197C42.4582 212.704 40.8112 215.672 37.8744 217.605C35.2999 219.299 32.3889 219.768 30.2173 219.056L32.1284 217.232L27.6904 217.431L22.1095 217.641Z" fill="#173937"/>
<path d="M44.3739 227.708C55.7589 220.216 60.533 207.372 55.0372 199.021C49.5414 190.669 35.8568 189.972 24.4718 197.464C13.0868 204.956 8.31265 217.8 13.8084 226.151C19.3043 234.503 32.9888 235.2 44.3739 227.708Z" fill="url(#paint47_linear)"/>
</g>
<g clip-path="url(#clip12)">
<path d="M196.837 50.7941C190.734 41.5189 175.537 40.7445 162.893 49.0648C150.25 57.3846 144.948 71.6486 151.051 80.9238C151.573 81.7161 153.143 84.102 153.664 84.8943C159.768 94.1695 174.966 94.9434 187.609 86.6236C200.253 78.3032 205.554 64.0398 199.45 54.7646C198.929 53.9723 197.359 51.5864 196.837 50.7941Z" fill="white"/>
<path d="M184.996 82.6531C197.639 74.333 202.941 60.0692 196.837 50.7941C190.734 41.519 175.536 40.7448 162.893 49.0648C150.25 57.3849 144.948 71.6487 151.051 80.9238C157.155 90.1989 172.352 90.9731 184.996 82.6531Z" fill="white"/>
<path d="M151.051 80.9238C151.573 81.7161 153.143 84.102 153.664 84.8943C159.768 94.1695 174.966 94.9434 187.608 86.6236C200.252 78.3032 205.554 64.0398 199.45 54.7646C198.929 53.9723 197.359 51.5873 196.837 50.7941C202.941 60.0693 197.638 74.3324 184.995 82.6522C172.352 90.972 157.154 90.1981 151.051 80.9238Z" fill="url(#paint48_linear)"/>
<path d="M162.893 49.0648C150.25 57.3846 144.948 71.6486 151.051 80.9238C157.155 90.199 172.353 90.9729 184.996 82.6531C197.64 74.3327 202.941 60.0693 196.837 50.7941C190.734 41.5189 175.537 40.7445 162.893 49.0648ZM184.496 81.8938C172.424 89.8382 157.914 89.0987 152.086 80.2429C146.259 71.3871 151.32 57.7675 163.392 49.8232C175.464 41.8788 189.974 42.6183 195.802 51.4741C201.63 60.3299 196.569 73.9495 184.496 81.8938Z" fill="url(#paint49_linear)"/>
<path d="M184.496 81.8939C196.569 73.9495 201.63 60.3308 195.803 51.475C189.975 42.6192 175.464 41.8788 163.392 49.8232C151.32 57.7675 146.258 71.3862 152.086 80.242C157.913 89.0979 172.424 89.8382 184.496 81.8939ZM164.472 51.4641C175.857 43.9723 189.542 44.6691 195.037 53.0206C200.533 61.372 195.759 74.2169 184.374 81.7087C172.99 89.2006 159.305 88.5038 153.809 80.1523C148.313 71.8009 153.087 58.956 164.472 51.4641Z" fill="url(#paint50_linear)"/>
<path fill-rule="evenodd" clip-rule="evenodd" d="M186.924 61.4256C186.739 60.5158 186.392 59.6528 185.874 58.865C182.892 54.3332 175.344 54.0365 169.014 58.202C164.686 61.05 162.049 65.2465 161.767 69.0627L166.797 68.8695C166.576 66.3624 168.223 63.3946 171.159 61.4621C173.734 59.7679 176.645 59.2985 178.816 60.0112L176.905 61.8345L181.343 61.6357L186.924 61.4256Z" fill="#12A17E"/>
<path fill-rule="evenodd" clip-rule="evenodd" d="M162.11 71.6412C162.295 72.551 162.642 73.414 163.16 74.2018C166.142 78.7335 173.69 79.0303 180.02 74.8648C184.348 72.0168 186.984 67.8203 187.267 64.0041L182.236 64.1973C182.458 66.7044 180.811 69.6721 177.874 71.6047C175.3 73.2988 172.389 73.7683 170.217 73.0555L172.128 71.2323L167.69 71.431L162.11 71.6412Z" fill="#173937"/>
<path d="M184.374 81.7079C195.759 74.2159 200.533 61.3722 195.037 53.0206C189.541 44.669 175.857 43.9722 164.472 51.4642C153.087 58.9561 148.313 71.7999 153.808 80.1514C159.304 88.503 172.989 89.1998 184.374 81.7079Z" fill="url(#paint51_linear)"/>
</g>
<defs>
<filter id="filter0_i" x="16" y="1" width="426" height="404" filterUnits="userSpaceOnUse" color-interpolation-filters="sRGB">
<feFlood flood-opacity="0" result="BackgroundImageFix"/>
<feBlend mode="normal" in="SourceGraphic" in2="BackgroundImageFix" result="shape"/>
<feColorMatrix in="SourceAlpha" type="matrix" values="0 0 0 0 0 0 0 0 0 0 0 0 0 0 0 0 0 0 127 0" result="hardAlpha"/>
<feOffset dx="10"/>
<feGaussianBlur stdDeviation="17"/>
<feComposite in2="hardAlpha" operator="arithmetic" k2="-1" k3="1"/>
<feColorMatrix type="matrix" values="0 0 0 0 0 0 0 0 0 0 0 0 0 0 0 0 0 0 0.34 0"/>
<feBlend mode="normal" in2="shape" result="effect1_innerShadow"/>
</filter>
<filter id="filter1_i" x="55" y="39" width="348" height="328" filterUnits="userSpaceOnUse" color-interpolation-filters="sRGB">
<feFlood flood-opacity="0" result="BackgroundImageFix"/>
<feBlend mode="normal" in="SourceGraphic" in2="BackgroundImageFix" result="shape"/>
<feColorMatrix in="SourceAlpha" type="matrix" values="0 0 0 0 0 0 0 0 0 0 0 0 0 0 0 0 0 0 127 0" result="hardAlpha"/>
<feOffset dx="10"/>
<feGaussianBlur stdDeviation="17"/>
<feComposite in2="hardAlpha" operator="arithmetic" k2="-1" k3="1"/>
<feColorMatrix type="matrix" values="0 0 0 0 0 0 0 0 0 0 0 0 0 0 0 0 0 0 0.34 0"/>
<feBlend mode="normal" in2="shape" result="effect1_innerShadow"/>
</filter>
<filter id="filter2_i" x="101" y="83" width="242" height="226" filterUnits="userSpaceOnUse" color-interpolation-filters="sRGB">
<feFlood flood-opacity="0" result="BackgroundImageFix"/>
<feBlend mode="normal" in="SourceGraphic" in2="BackgroundImageFix" result="shape"/>
<feColorMatrix in="SourceAlpha" type="matrix" values="0 0 0 0 0 0 0 0 0 0 0 0 0 0 0 0 0 0 127 0" result="hardAlpha"/>
<feOffset dx="10"/>
<feGaussianBlur stdDeviation="17"/>
<feComposite in2="hardAlpha" operator="arithmetic" k2="-1" k3="1"/>
<feColorMatrix type="matrix" values="0 0 0 0 0 0 0 0 0 0 0 0 0 0 0 0 0 0 0.34 0"/>
<feBlend mode="normal" in2="shape" result="effect1_innerShadow"/>
</filter>
<filter id="filter3_i" x="148" y="129" width="148" height="134" filterUnits="userSpaceOnUse" color-interpolation-filters="sRGB">
<feFlood flood-opacity="0" result="BackgroundImageFix"/>
<feBlend mode="normal" in="SourceGraphic" in2="BackgroundImageFix" result="shape"/>
<feColorMatrix in="SourceAlpha" type="matrix" values="0 0 0 0 0 0 0 0 0 0 0 0 0 0 0 0 0 0 127 0" result="hardAlpha"/>
<feOffset dx="10"/>
<feGaussianBlur stdDeviation="17"/>
<feComposite in2="hardAlpha" operator="arithmetic" k2="-1" k3="1"/>
<feColorMatrix type="matrix" values="0 0 0 0 0 0 0 0 0 0 0 0 0 0 0 0 0 0 0.34 0"/>
<feBlend mode="normal" in2="shape" result="effect1_innerShadow"/>
</filter>
<filter id="filter4_d" x="36.1082" y="116.403" width="280.952" height="191.912" filterUnits="userSpaceOnUse" color-interpolation-filters="sRGB">
<feFlood flood-opacity="0" result="BackgroundImageFix"/>
<feColorMatrix in="SourceAlpha" type="matrix" values="0 0 0 0 0 0 0 0 0 0 0 0 0 0 0 0 0 0 127 0"/>
<feOffset dy="13.8918"/>
<feGaussianBlur stdDeviation="6.94589"/>
<feColorMatrix type="matrix" values="0 0 0 0 0 0 0 0 0 0 0 0 0 0 0 0 0 0 0.25 0"/>
<feBlend mode="normal" in2="BackgroundImageFix" result="effect1_dropShadow"/>
<feBlend mode="normal" in="SourceGraphic" in2="effect1_dropShadow" result="shape"/>
</filter>
<filter id="filter5_d" x="69.0438" y="65.0965" width="213.526" height="185.096" filterUnits="userSpaceOnUse" color-interpolation-filters="sRGB">
<feFlood flood-opacity="0" result="BackgroundImageFix"/>
<feColorMatrix in="SourceAlpha" type="matrix" values="0 0 0 0 0 0 0 0 0 0 0 0 0 0 0 0 0 0 127 0"/>
<feOffset dy="13.8918"/>
<feGaussianBlur stdDeviation="6.94589"/>
<feColorMatrix type="matrix" values="0 0 0 0 0 0 0 0 0 0 0 0 0 0 0 0 0 0 0.25 0"/>
<feBlend mode="normal" in2="BackgroundImageFix" result="effect1_dropShadow"/>
<feBlend mode="normal" in="SourceGraphic" in2="effect1_dropShadow" result="shape"/>
</filter>
<linearGradient id="paint0_linear" x1="111.799" y1="233.059" x2="72.9029" y2="271.768" gradientUnits="userSpaceOnUse">
<stop stop-opacity="0.1"/>
<stop offset="0.3226" stop-opacity="0.3938"/>
<stop offset="1" stop-opacity="0.1"/>
</linearGradient>
<linearGradient id="paint1_linear" x1="69.425" y1="229.331" x2="104.934" y2="265.012" gradientUnits="userSpaceOnUse">
<stop stop-color="white" stop-opacity="0.2"/>
<stop offset="1" stop-color="white" stop-opacity="0"/>
</linearGradient>
<linearGradient id="paint2_linear" x1="99.4262" y1="259.478" x2="72.3452" y2="232.265" gradientUnits="userSpaceOnUse">
<stop stop-color="white" stop-opacity="0.3"/>
<stop offset="0.4884" stop-color="white" stop-opacity="0"/>
<stop offset="1" stop-opacity="0.3"/>
</linearGradient>
<linearGradient id="paint3_linear" x1="96.9875" y1="257.027" x2="80.3368" y2="240.296" gradientUnits="userSpaceOnUse">
<stop stop-opacity="0.05"/>
<stop offset="1" stop-opacity="0"/>
</linearGradient>
<linearGradient id="paint4_linear" x1="237.865" y1="185.852" x2="195.944" y2="221.263" gradientUnits="userSpaceOnUse">
<stop stop-opacity="0.1"/>
<stop offset="0.3226" stop-opacity="0.3938"/>
<stop offset="1" stop-opacity="0.1"/>
</linearGradient>
<linearGradient id="paint5_linear" x1="195.935" y1="178.684" x2="228.419" y2="217.14" gradientUnits="userSpaceOnUse">
<stop stop-color="white" stop-opacity="0.2"/>
<stop offset="1" stop-color="white" stop-opacity="0"/>
</linearGradient>
<linearGradient id="paint6_linear" x1="223.381" y1="211.175" x2="198.607" y2="181.847" gradientUnits="userSpaceOnUse">
<stop stop-color="white" stop-opacity="0.3"/>
<stop offset="0.4884" stop-color="white" stop-opacity="0"/>
<stop offset="1" stop-opacity="0.3"/>
</linearGradient>
<linearGradient id="paint7_linear" x1="221.15" y1="208.534" x2="205.918" y2="190.502" gradientUnits="userSpaceOnUse">
<stop stop-opacity="0.05"/>
<stop offset="1" stop-opacity="0"/>
</linearGradient>
<linearGradient id="paint8_linear" x1="181.865" y1="228.852" x2="139.944" y2="264.263" gradientUnits="userSpaceOnUse">
<stop stop-opacity="0.1"/>
<stop offset="0.3226" stop-opacity="0.3938"/>
<stop offset="1" stop-opacity="0.1"/>
</linearGradient>
<linearGradient id="paint9_linear" x1="139.935" y1="221.684" x2="172.419" y2="260.14" gradientUnits="userSpaceOnUse">
<stop stop-color="white" stop-opacity="0.2"/>
<stop offset="1" stop-color="white" stop-opacity="0"/>
</linearGradient>
<linearGradient id="paint10_linear" x1="167.381" y1="254.175" x2="142.607" y2="224.847" gradientUnits="userSpaceOnUse">
<stop stop-color="white" stop-opacity="0.3"/>
<stop offset="0.4884" stop-color="white" stop-opacity="0"/>
<stop offset="1" stop-opacity="0.3"/>
</linearGradient>
<linearGradient id="paint11_linear" x1="165.15" y1="251.534" x2="149.918" y2="233.502" gradientUnits="userSpaceOnUse">
<stop stop-opacity="0.05"/>
<stop offset="1" stop-opacity="0"/>
</linearGradient>
<linearGradient id="paint12_linear" x1="296.336" y1="143.58" x2="250.496" y2="173.745" gradientUnits="userSpaceOnUse">
<stop stop-opacity="0.1"/>
<stop offset="0.3226" stop-opacity="0.3938"/>
<stop offset="1" stop-opacity="0.1"/>
</linearGradient>
<linearGradient id="paint13_linear" x1="255.559" y1="131.468" x2="283.231" y2="173.519" gradientUnits="userSpaceOnUse">
<stop stop-color="white" stop-opacity="0.2"/>
<stop offset="1" stop-color="white" stop-opacity="0"/>
</linearGradient>
<linearGradient id="paint14_linear" x1="278.939" y1="166.996" x2="257.835" y2="134.926" gradientUnits="userSpaceOnUse">
<stop stop-color="white" stop-opacity="0.3"/>
<stop offset="0.4884" stop-color="white" stop-opacity="0"/>
<stop offset="1" stop-opacity="0.3"/>
</linearGradient>
<linearGradient id="paint15_linear" x1="277.039" y1="164.109" x2="264.063" y2="144.39" gradientUnits="userSpaceOnUse">
<stop stop-opacity="0.05"/>
<stop offset="1" stop-opacity="0"/>
</linearGradient>
<linearGradient id="paint16_linear" x1="144.734" y1="94.7525" x2="105.838" y2="133.461" gradientUnits="userSpaceOnUse">
<stop stop-opacity="0.1"/>
<stop offset="0.3226" stop-opacity="0.3938"/>
<stop offset="1" stop-opacity="0.1"/>
</linearGradient>
<linearGradient id="paint17_linear" x1="102.361" y1="91.0244" x2="137.869" y2="126.705" gradientUnits="userSpaceOnUse">
<stop stop-color="white" stop-opacity="0.2"/>
<stop offset="1" stop-color="white" stop-opacity="0"/>
</linearGradient>
<linearGradient id="paint18_linear" x1="132.362" y1="121.171" x2="105.281" y2="93.9584" gradientUnits="userSpaceOnUse">
<stop stop-color="white" stop-opacity="0.3"/>
<stop offset="0.4884" stop-color="white" stop-opacity="0"/>
<stop offset="1" stop-opacity="0.3"/>
</linearGradient>
<linearGradient id="paint19_linear" x1="129.923" y1="118.72" x2="113.272" y2="101.989" gradientUnits="userSpaceOnUse">
<stop stop-opacity="0.05"/>
<stop offset="1" stop-opacity="0"/>
</linearGradient>
<linearGradient id="paint20_linear" x1="199.865" y1="131.852" x2="157.944" y2="167.263" gradientUnits="userSpaceOnUse">
<stop stop-opacity="0.1"/>
<stop offset="0.3226" stop-opacity="0.3938"/>
<stop offset="1" stop-opacity="0.1"/>
</linearGradient>
<linearGradient id="paint21_linear" x1="157.935" y1="124.684" x2="190.419" y2="163.14" gradientUnits="userSpaceOnUse">
<stop stop-color="white" stop-opacity="0.2"/>
<stop offset="1" stop-color="white" stop-opacity="0"/>
</linearGradient>
<linearGradient id="paint22_linear" x1="185.381" y1="157.175" x2="160.607" y2="127.847" gradientUnits="userSpaceOnUse">
<stop stop-color="white" stop-opacity="0.3"/>
<stop offset="0.4884" stop-color="white" stop-opacity="0"/>
<stop offset="1" stop-opacity="0.3"/>
</linearGradient>
<linearGradient id="paint23_linear" x1="183.15" y1="154.534" x2="167.918" y2="136.502" gradientUnits="userSpaceOnUse">
<stop stop-opacity="0.05"/>
<stop offset="1" stop-opacity="0"/>
</linearGradient>
<linearGradient id="paint24_linear" x1="147.374" y1="177.546" x2="105.454" y2="212.956" gradientUnits="userSpaceOnUse">
<stop stop-opacity="0.1"/>
<stop offset="0.3226" stop-opacity="0.3938"/>
<stop offset="1" stop-opacity="0.1"/>
</linearGradient>
<linearGradient id="paint25_linear" x1="105.445" y1="170.378" x2="137.929" y2="208.833" gradientUnits="userSpaceOnUse">
<stop stop-color="white" stop-opacity="0.2"/>
<stop offset="1" stop-color="white" stop-opacity="0"/>
</linearGradient>
<linearGradient id="paint26_linear" x1="132.891" y1="202.868" x2="108.117" y2="173.54" gradientUnits="userSpaceOnUse">
<stop stop-color="white" stop-opacity="0.3"/>
<stop offset="0.4884" stop-color="white" stop-opacity="0"/>
<stop offset="1" stop-opacity="0.3"/>
</linearGradient>
<linearGradient id="paint27_linear" x1="130.66" y1="200.227" x2="115.428" y2="182.195" gradientUnits="userSpaceOnUse">
<stop stop-opacity="0.05"/>
<stop offset="1" stop-opacity="0"/>
</linearGradient>
<linearGradient id="paint28_linear" x1="261.845" y1="92.2727" x2="216.006" y2="122.438" gradientUnits="userSpaceOnUse">
<stop stop-opacity="0.1"/>
<stop offset="0.3226" stop-opacity="0.3938"/>
<stop offset="1" stop-opacity="0.1"/>
</linearGradient>
<linearGradient id="paint29_linear" x1="221.069" y1="80.1612" x2="248.741" y2="122.212" gradientUnits="userSpaceOnUse">
<stop stop-color="white" stop-opacity="0.2"/>
<stop offset="1" stop-color="white" stop-opacity="0"/>
</linearGradient>
<linearGradient id="paint30_linear" x1="244.449" y1="115.689" x2="223.345" y2="83.6191" gradientUnits="userSpaceOnUse">
<stop stop-color="white" stop-opacity="0.3"/>
<stop offset="0.4884" stop-color="white" stop-opacity="0"/>
<stop offset="1" stop-opacity="0.3"/>
</linearGradient>
<linearGradient id="paint31_linear" x1="242.548" y1="112.802" x2="229.573" y2="93.0834" gradientUnits="userSpaceOnUse">
<stop stop-opacity="0.05"/>
<stop offset="1" stop-opacity="0"/>
</linearGradient>
<linearGradient id="paint32_linear" x1="313.865" y1="50.8525" x2="271.944" y2="86.2631" gradientUnits="userSpaceOnUse">
<stop stop-opacity="0.1"/>
<stop offset="0.3226" stop-opacity="0.3938"/>
<stop offset="1" stop-opacity="0.1"/>
</linearGradient>
<linearGradient id="paint33_linear" x1="271.935" y1="43.6845" x2="304.419" y2="82.1397" gradientUnits="userSpaceOnUse">
<stop stop-color="white" stop-opacity="0.2"/>
<stop offset="1" stop-color="white" stop-opacity="0"/>
</linearGradient>
<linearGradient id="paint34_linear" x1="299.381" y1="76.1747" x2="274.607" y2="46.8466" gradientUnits="userSpaceOnUse">
<stop stop-color="white" stop-opacity="0.3"/>
<stop offset="0.4884" stop-color="white" stop-opacity="0"/>
<stop offset="1" stop-opacity="0.3"/>
</linearGradient>
<linearGradient id="paint35_linear" x1="297.15" y1="73.5339" x2="281.918" y2="55.5016" gradientUnits="userSpaceOnUse">
<stop stop-opacity="0.05"/>
<stop offset="1" stop-opacity="0"/>
</linearGradient>
<linearGradient id="paint36_linear" x1="260.669" y1="27.1762" x2="214.829" y2="57.3413" gradientUnits="userSpaceOnUse">
<stop stop-opacity="0.1"/>
<stop offset="0.3226" stop-opacity="0.3938"/>
<stop offset="1" stop-opacity="0.1"/>
</linearGradient>
<linearGradient id="paint37_linear" x1="219.893" y1="15.0647" x2="247.565" y2="57.1156" gradientUnits="userSpaceOnUse">
<stop stop-color="white" stop-opacity="0.2"/>
<stop offset="1" stop-color="white" stop-opacity="0"/>
</linearGradient>
<linearGradient id="paint38_linear" x1="243.272" y1="50.5929" x2="222.168" y2="18.5226" gradientUnits="userSpaceOnUse">
<stop stop-color="white" stop-opacity="0.3"/>
<stop offset="0.4884" stop-color="white" stop-opacity="0"/>
<stop offset="1" stop-opacity="0.3"/>
</linearGradient>
<linearGradient id="paint39_linear" x1="241.372" y1="47.7052" x2="228.396" y2="27.9869" gradientUnits="userSpaceOnUse">
<stop stop-opacity="0.05"/>
<stop offset="1" stop-opacity="0"/>
</linearGradient>
<linearGradient id="paint40_linear" x1="99.6692" y1="150.176" x2="53.8295" y2="180.341" gradientUnits="userSpaceOnUse">
<stop stop-opacity="0.1"/>
<stop offset="0.3226" stop-opacity="0.3938"/>
<stop offset="1" stop-opacity="0.1"/>
</linearGradient>
<linearGradient id="paint41_linear" x1="58.8929" y1="138.065" x2="86.5647" y2="180.116" gradientUnits="userSpaceOnUse">
<stop stop-color="white" stop-opacity="0.2"/>
<stop offset="1" stop-color="white" stop-opacity="0"/>
</linearGradient>
<linearGradient id="paint42_linear" x1="82.2724" y1="173.593" x2="61.1684" y2="141.523" gradientUnits="userSpaceOnUse">
<stop stop-color="white" stop-opacity="0.3"/>
<stop offset="0.4884" stop-color="white" stop-opacity="0"/>
<stop offset="1" stop-opacity="0.3"/>
</linearGradient>
<linearGradient id="paint43_linear" x1="80.3721" y1="170.705" x2="67.3963" y2="150.987" gradientUnits="userSpaceOnUse">
<stop stop-opacity="0.05"/>
<stop offset="1" stop-opacity="0"/>
</linearGradient>
<linearGradient id="paint44_linear" x1="63.6692" y1="207.176" x2="17.8295" y2="237.341" gradientUnits="userSpaceOnUse">
<stop stop-opacity="0.1"/>
<stop offset="0.3226" stop-opacity="0.3938"/>
<stop offset="1" stop-opacity="0.1"/>
</linearGradient>
<linearGradient id="paint45_linear" x1="22.8929" y1="195.065" x2="50.5647" y2="237.116" gradientUnits="userSpaceOnUse">
<stop stop-color="white" stop-opacity="0.2"/>
<stop offset="1" stop-color="white" stop-opacity="0"/>
</linearGradient>
<linearGradient id="paint46_linear" x1="46.2724" y1="230.593" x2="25.1684" y2="198.523" gradientUnits="userSpaceOnUse">
<stop stop-color="white" stop-opacity="0.3"/>
<stop offset="0.4884" stop-color="white" stop-opacity="0"/>
<stop offset="1" stop-opacity="0.3"/>
</linearGradient>
<linearGradient id="paint47_linear" x1="44.3721" y1="227.705" x2="31.3963" y2="207.987" gradientUnits="userSpaceOnUse">
<stop stop-opacity="0.05"/>
<stop offset="1" stop-opacity="0"/>
</linearGradient>
<linearGradient id="paint48_linear" x1="203.669" y1="61.1762" x2="157.829" y2="91.3413" gradientUnits="userSpaceOnUse">
<stop stop-opacity="0.1"/>
<stop offset="0.3226" stop-opacity="0.3938"/>
<stop offset="1" stop-opacity="0.1"/>
</linearGradient>
<linearGradient id="paint49_linear" x1="162.893" y1="49.0647" x2="190.565" y2="91.1156" gradientUnits="userSpaceOnUse">
<stop stop-color="white" stop-opacity="0.2"/>
<stop offset="1" stop-color="white" stop-opacity="0"/>
</linearGradient>
<linearGradient id="paint50_linear" x1="186.272" y1="84.5929" x2="165.168" y2="52.5226" gradientUnits="userSpaceOnUse">
<stop stop-color="white" stop-opacity="0.3"/>
<stop offset="0.4884" stop-color="white" stop-opacity="0"/>
<stop offset="1" stop-opacity="0.3"/>
</linearGradient>
<linearGradient id="paint51_linear" x1="184.372" y1="81.7052" x2="171.396" y2="61.9869" gradientUnits="userSpaceOnUse">
<stop stop-opacity="0.05"/>
<stop offset="1" stop-opacity="0"/>
</linearGradient>
<clipPath id="clip0">
<rect width="54.8101" height="44.9614" fill="white" transform="translate(50 248.663) rotate(-44.8616)"/>
</clipPath>
<clipPath id="clip1">
<rect width="54.8101" height="44.9614" fill="white" transform="translate(175 196.369) rotate(-40.1884)"/>
</clipPath>
<clipPath id="clip2">
<rect width="54.8101" height="44.9614" fill="white" transform="translate(119 239.369) rotate(-40.1884)"/>
</clipPath>
<clipPath id="clip3">
<rect width="54.8101" height="44.9614" fill="white" transform="translate(232.667 146.533) rotate(-33.3472)"/>
</clipPath>
<clipPath id="clip4">
<rect width="54.8101" height="44.9614" fill="white" transform="translate(82.9355 110.356) rotate(-44.8616)"/>
</clipPath>
<clipPath id="clip5">
<rect width="54.8101" height="44.9614" fill="white" transform="translate(137 142.369) rotate(-40.1884)"/>
</clipPath>
<clipPath id="clip6">
<rect width="54.8101" height="44.9614" fill="white" transform="translate(84.5098 188.062) rotate(-40.1884)"/>
</clipPath>
<clipPath id="clip7">
<rect width="54.8101" height="44.9614" fill="white" transform="translate(198.176 95.2262) rotate(-33.3472)"/>
</clipPath>
<clipPath id="clip8">
<rect width="54.8101" height="44.9614" fill="white" transform="translate(251 61.3691) rotate(-40.1884)"/>
</clipPath>
<clipPath id="clip9">
<rect width="54.8101" height="44.9614" fill="white" transform="translate(197 30.1297) rotate(-33.3472)"/>
</clipPath>
<clipPath id="clip10">
<rect width="54.8101" height="44.9614" fill="white" transform="translate(36 153.13) rotate(-33.3472)"/>
</clipPath>
<clipPath id="clip11">
<rect width="54.8101" height="44.9614" fill="white" transform="translate(0 210.13) rotate(-33.3472)"/>
</clipPath>
<clipPath id="clip12">
<rect width="54.8101" height="44.9614" fill="white" transform="translate(140 64.1297) rotate(-33.3472)"/>
</clipPath>
</defs>
</svg>
